# Blender v2.78 (sub 0) OBJ File: 'Truck.blend'
# www.blender.org
mtllib Truck.mtl
o Truck
v -2.431327 -0.420655 1.476966
v -2.431327 0.420655 1.476966
v -2.431327 -0.420655 0.635655
v -2.431327 0.420655 0.635655
v -1.590016 -0.420655 1.476966
v -1.590016 0.420655 1.476966
v -1.590016 -0.420655 0.635655
v -1.590016 0.420655 0.635655
v -2.431327 -0.420655 -1.476966
v -2.431327 0.420655 -1.476966
v -2.431327 -0.420655 -0.635655
v -2.431327 0.420655 -0.635655
v -1.590016 -0.420655 -1.476966
v -1.590016 0.420655 -1.476966
v -1.590016 -0.420655 -0.635655
v -1.590016 0.420655 -0.635655
v -3.681916 -0.420655 -1.476966
v -3.681916 0.420655 -1.476966
v -3.681916 -0.420655 -0.635655
v -3.681916 0.420655 -0.635655
v -2.840606 -0.420655 -1.476966
v -2.840606 0.420655 -1.476966
v -2.840606 -0.420655 -0.635655
v -2.840606 0.420655 -0.635655
v 1.297829 -0.420655 -1.476966
v 1.297829 0.420655 -1.476966
v 1.297829 -0.420655 -0.635655
v 1.297829 0.420655 -0.635655
v 2.139140 -0.420655 -1.476966
v 2.139140 0.420655 -1.476966
v 2.139140 -0.420655 -0.635655
v 2.139140 0.420655 -0.635655
v 1.297829 -0.420655 1.476966
v 1.297829 0.420655 1.476966
v 1.297829 -0.420655 0.635655
v 1.297829 0.420655 0.635655
v 2.139140 -0.420655 1.476966
v 2.139140 0.420655 1.476966
v 2.139140 -0.420655 0.635655
v 2.139140 0.420655 0.635655
v -3.681916 -0.420655 1.476966
v -3.681916 0.420655 1.476966
v -3.681916 -0.420655 0.635655
v -3.681916 0.420655 0.635655
v -2.840606 -0.420655 1.476966
v -2.840606 0.420655 1.476966
v -2.840606 -0.420655 0.635655
v -2.840606 0.420655 0.635655
v 3.873150 0.000000 -1.000000
v 3.873150 0.000000 1.000000
v -4.000000 0.000000 1.000000
v -3.999999 0.000000 -1.000000
v 2.404950 1.000000 -0.999999
v 2.404948 1.000000 1.000001
v -4.000001 1.000000 1.000000
v -4.000000 1.000000 -1.000000
v 0.986116 1.000000 1.000000
v 0.986118 1.000000 -1.000000
v 0.986118 2.065759 -1.000000
v -4.000000 2.065759 -1.000000
v 0.986116 2.065759 1.000000
v -4.000001 2.065759 1.000000
vn 0.0000 -1.0000 0.0000
vn 0.0000 1.0000 0.0000
vn 0.5629 0.8265 0.0000
vn -0.0000 -0.0000 1.0000
vn -1.0000 -0.0000 -0.0000
vn 0.0000 0.0000 -1.0000
vn 1.0000 0.0000 0.0000
usemtl CarBody
s off
f 49//1 50//1 51//1 52//1
f 53//2 58//2 57//2 54//2
f 49//3 53//3 54//3 50//3
f 50//4 54//4 57//4 55//4 51//4
f 51//5 55//5 56//5 52//5
f 53//6 49//6 52//6 56//6 58//6
f 61//2 59//2 60//2 62//2
f 55//4 57//4 61//4 62//4
f 56//5 55//5 62//5 60//5
f 58//6 56//6 60//6 59//6
f 57//7 58//7 59//7 61//7
usemtl WheelBody
f 1//5 2//5 4//5 3//5
f 3//6 4//6 8//6 7//6
f 7//7 8//7 6//7 5//7
f 5//4 6//4 2//4 1//4
f 3//1 7//1 5//1 1//1
f 8//2 4//2 2//2 6//2
f 9//7 10//7 12//7 11//7
f 11//6 12//6 16//6 15//6
f 15//5 16//5 14//5 13//5
f 13//4 14//4 10//4 9//4
f 11//2 15//2 13//2 9//2
f 16//1 12//1 10//1 14//1
f 17//7 18//7 20//7 19//7
f 19//6 20//6 24//6 23//6
f 23//5 24//5 22//5 21//5
f 21//4 22//4 18//4 17//4
f 19//2 23//2 21//2 17//2
f 24//1 20//1 18//1 22//1
f 25//7 26//7 28//7 27//7
f 27//6 28//6 32//6 31//6
f 31//5 32//5 30//5 29//5
f 29//4 30//4 26//4 25//4
f 27//2 31//2 29//2 25//2
f 32//1 28//1 26//1 30//1
f 33//5 34//5 36//5 35//5
f 35//6 36//6 40//6 39//6
f 39//7 40//7 38//7 37//7
f 37//4 38//4 34//4 33//4
f 35//1 39//1 37//1 33//1
f 40//2 36//2 34//2 38//2
f 41//5 42//5 44//5 43//5
f 43//6 44//6 48//6 47//6
f 47//7 48//7 46//7 45//7
f 45//4 46//4 42//4 41//4
f 43//1 47//1 45//1 41//1
f 48//2 44//2 42//2 46//2
